<svg width="64" height="64" viewBox="0 0 64 64" xmlns="http://www.w3.org/2000/svg">
  <!-- Hexagon background -->
  <polygon points="32,8 48,18 48,38 32,48 16,38 16,18" 
           fill="none" stroke="#1a73e8" stroke-width="3"/>
  
  <!-- Inner hexagon -->
  <polygon points="32,16 42,22 42,34 32,40 22,34 22,22" 
           fill="#1a73e8" opacity="0.1"/>
  
  <!-- Central icon - plate with data -->
  <circle cx="32" cy="28" r="6" fill="none" stroke="#28a745" stroke-width="2"/>
  
  <!-- Food items -->
  <circle cx="30" cy="26" r="1" fill="#ff6b35"/>
  <circle cx="34" cy="26" r="1" fill="#28a745"/>
  <circle cx="32" cy="30" r="1" fill="#ffc107"/>
  
  <!-- Data visualization -->
  <rect x="28" y="36" width="1.5" height="4" fill="#1a73e8"/>
  <rect x="30.5" y="38" width="1.5" height="2" fill="#1a73e8"/>
  <rect x="33" y="34" width="1.5" height="6" fill="#1a73e8"/>
  <rect x="35.5" y="37" width="1.5" height="3" fill="#1a73e8"/>
  
  <!-- Corner accents -->
  <circle cx="48" cy="18" r="2" fill="#ffc107"/>
  <circle cx="16" cy="38" r="2" fill="#28a745"/>
</svg>