<svg width="32" height="32" viewBox="0 0 32 32" xmlns="http://www.w3.org/2000/svg">
  <!-- Apple body - more accurate shape -->
  <path d="M16 6c-5 0-8.5 3-8.5 7.5 0 6 3.5 9 8.5 14 5-5 8.5-8 8.5-14 0-4.5-3.5-7.5-8.5-7.5z" fill="#4a9d5f"/>
  
  <!-- Apple indent at top -->
  <path d="M16 6c-1 0-1.5 0.5-1.5 1 0 0.5 0.5 1 1.5 1 1 0 1.5-0.5 1.5-1 0-0.5-0.5-1-1.5-1z" fill="#f5f5f0"/>
  
  <!-- Apple stem and leaves -->
  <rect x="15.5" y="3" width="1" height="3" fill="#4a9d5f"/>
  <ellipse cx="17.5" cy="4" rx="2.5" ry="1.2" fill="#4a9d5f" transform="rotate(25 17.5 4)"/>
  <ellipse cx="14.5" cy="4.5" rx="1.8" ry="0.8" fill="#4a9d5f" transform="rotate(-15 14.5 4.5)"/>
  
  <!-- Analytics chart inside apple - more prominent -->
  <g transform="translate(16, 16)">
    <!-- Chart line with upward trend -->
    <path d="M-4 2 L-1.5 -1 L1 0.5 L4 -2.5" stroke="white" stroke-width="2" fill="none" stroke-linecap="round" stroke-linejoin="round"/>
    
    <!-- Chart points - larger and more visible -->
    <circle cx="-4" cy="2" r="2" fill="white"/>
    <circle cx="-1.5" cy="-1" r="2" fill="white"/>
    <circle cx="1" cy="0.5" r="2" fill="white"/>
    <circle cx="4" cy="-2.5" r="2" fill="white"/>
  </g>
</svg>